<?xml version="1.0" encoding="UTF-8"?>
<svg xmlns="http://www.w3.org/2000/svg" xmlns:xlink="http://www.w3.org/1999/xlink" width="18px" height="18px" viewBox="0 0 18 18" version="1.1">
<g id="surface1">
<path style=" stroke:none;fill-rule:nonzero;fill:rgb(0%,0%,0%);fill-opacity:1;" d="M 9 2.59375 C 5.460938 2.59375 2.59375 5.464844 2.59375 9 C 2.59375 12.535156 5.460938 15.40625 9 15.40625 C 12.535156 15.40625 15.40625 12.535156 15.40625 9 C 15.40625 5.464844 12.539062 2.59375 9 2.59375 Z M 7.21875 11.679688 C 7.21875 11.734375 7.1875 11.789062 7.140625 11.820312 C 7.09375 11.847656 7.035156 11.855469 6.984375 11.832031 L 4.679688 10.828125 C 4.621094 10.800781 4.582031 10.742188 4.582031 10.675781 L 4.582031 6.320312 C 4.582031 6.265625 4.609375 6.210938 4.65625 6.179688 C 4.703125 6.152344 4.761719 6.144531 4.8125 6.167969 L 7.117188 7.171875 C 7.179688 7.199219 7.21875 7.257812 7.21875 7.324219 Z M 10.351562 10.675781 C 10.351562 10.742188 10.3125 10.800781 10.253906 10.828125 L 7.945312 11.832031 C 7.894531 11.855469 7.835938 11.847656 7.789062 11.820312 C 7.742188 11.789062 7.714844 11.734375 7.714844 11.679688 L 7.714844 7.324219 C 7.714844 7.257812 7.753906 7.199219 7.8125 7.171875 L 10.117188 6.167969 C 10.171875 6.144531 10.230469 6.152344 10.277344 6.179688 C 10.324219 6.210938 10.351562 6.265625 10.351562 6.320312 Z M 13.484375 11.679688 C 13.484375 11.734375 13.457031 11.789062 13.410156 11.820312 C 13.363281 11.847656 13.304688 11.855469 13.253906 11.832031 L 10.949219 10.828125 C 10.886719 10.800781 10.847656 10.742188 10.847656 10.675781 L 10.847656 6.320312 C 10.847656 6.265625 10.878906 6.210938 10.925781 6.179688 C 10.972656 6.152344 11.03125 6.144531 11.082031 6.167969 L 13.386719 7.171875 C 13.445312 7.199219 13.484375 7.257812 13.484375 7.324219 Z M 13.484375 11.679688 "/>
</g>
</svg>
