<?xml version="1.0" encoding="UTF-8"?>
<svg xmlns="http://www.w3.org/2000/svg" xmlns:xlink="http://www.w3.org/1999/xlink" width="18px" height="18px" viewBox="0 0 18 18" version="1.1">
<g id="surface1">
<path style=" stroke:none;fill-rule:nonzero;fill:rgb(0%,0%,0%);fill-opacity:1;" d="M 5.242188 9.222656 C 5.242188 8.738281 4.90625 8.449219 4.3125 8.449219 C 4.070312 8.449219 3.902344 8.472656 3.816406 8.496094 L 3.816406 10.050781 C 3.921875 10.074219 4.046875 10.082031 4.214844 10.082031 C 4.851562 10.082031 5.242188 9.761719 5.242188 9.222656 Z M 5.242188 9.222656 "/>
<path style=" stroke:none;fill-rule:nonzero;fill:rgb(0%,0%,0%);fill-opacity:1;" d="M 8.917969 8.464844 C 8.652344 8.464844 8.480469 8.488281 8.378906 8.511719 L 8.378906 11.960938 C 8.480469 11.984375 8.644531 11.984375 8.792969 11.984375 C 9.871094 11.992188 10.574219 11.398438 10.574219 10.136719 C 10.582031 9.042969 9.941406 8.464844 8.917969 8.464844 Z M 8.917969 8.464844 "/>
<path style=" stroke:none;fill-rule:nonzero;fill:rgb(0%,0%,0%);fill-opacity:1;" d="M 15.960938 6.4375 L 15.53125 6.4375 L 15.53125 4.351562 C 15.53125 4.339844 15.527344 4.328125 15.527344 4.3125 C 15.523438 4.230469 15.5 4.148438 15.441406 4.085938 L 11.972656 0.121094 C 11.96875 0.121094 11.96875 0.121094 11.96875 0.117188 C 11.949219 0.09375 11.921875 0.0742188 11.898438 0.0585938 C 11.890625 0.0546875 11.882812 0.0507812 11.875 0.046875 C 11.851562 0.0351562 11.828125 0.0234375 11.804688 0.015625 C 11.800781 0.015625 11.792969 0.0117188 11.785156 0.0117188 C 11.761719 0.00390625 11.734375 0 11.707031 0 L 3.175781 0 C 2.785156 0 2.46875 0.316406 2.46875 0.707031 L 2.46875 6.4375 L 2.039062 6.4375 C 1.480469 6.4375 1.03125 6.890625 1.03125 7.449219 L 1.03125 12.695312 C 1.03125 13.25 1.480469 13.703125 2.039062 13.703125 L 2.46875 13.703125 L 2.46875 17.292969 C 2.46875 17.683594 2.785156 18 3.175781 18 L 14.824219 18 C 15.210938 18 15.53125 17.683594 15.53125 17.292969 L 15.53125 13.703125 L 15.960938 13.703125 C 16.519531 13.703125 16.96875 13.25 16.96875 12.695312 L 16.96875 7.449219 C 16.96875 6.890625 16.519531 6.4375 15.960938 6.4375 Z M 3.175781 0.707031 L 11.351562 0.707031 L 11.351562 4.316406 C 11.351562 4.511719 11.511719 4.671875 11.707031 4.671875 L 14.824219 4.671875 L 14.824219 6.4375 L 3.175781 6.4375 Z M 11.839844 10.097656 C 11.839844 11.109375 11.472656 11.804688 10.964844 12.234375 C 10.410156 12.695312 9.566406 12.914062 8.535156 12.914062 C 7.917969 12.914062 7.480469 12.875 7.179688 12.835938 L 7.179688 7.660156 C 7.617188 7.589844 8.191406 7.550781 8.792969 7.550781 C 9.792969 7.550781 10.441406 7.730469 10.949219 8.113281 C 11.496094 8.519531 11.839844 9.167969 11.839844 10.097656 Z M 2.636719 12.859375 L 2.636719 7.660156 C 3.003906 7.597656 3.519531 7.550781 4.25 7.550781 C 4.984375 7.550781 5.507812 7.691406 5.859375 7.972656 C 6.195312 8.238281 6.421875 8.675781 6.421875 9.191406 C 6.421875 9.707031 6.25 10.144531 5.9375 10.441406 C 5.53125 10.828125 4.929688 11 4.222656 11 C 4.066406 11 3.925781 10.992188 3.816406 10.976562 L 3.816406 12.859375 Z M 14.824219 17.101562 L 3.175781 17.101562 L 3.175781 13.703125 L 14.824219 13.703125 Z M 15.847656 8.566406 L 13.820312 8.566406 L 13.820312 9.769531 L 15.714844 9.769531 L 15.714844 10.742188 L 13.820312 10.742188 L 13.820312 12.859375 L 12.625 12.859375 L 12.625 7.589844 L 15.847656 7.589844 Z M 15.847656 8.566406 "/>
</g>
</svg>
