<?xml version="1.0" encoding="UTF-8"?>
<svg xmlns="http://www.w3.org/2000/svg" xmlns:xlink="http://www.w3.org/1999/xlink" width="18px" height="18px" viewBox="0 0 18 18" version="1.1">
<g id="surface1">
<path style=" stroke:none;fill-rule:nonzero;fill:rgb(0%,0%,0%);fill-opacity:1;" d="M 16.039062 13.3125 C 16.394531 13.671875 16.558594 14.175781 16.480469 14.671875 C 16.402344 15.171875 16.09375 15.601562 15.648438 15.832031 C 14.386719 16.507812 12.921875 16.679688 11.539062 16.316406 C 7.875 15.390625 2.609375 10.125 1.683594 6.460938 C 1.320312 5.078125 1.492188 3.613281 2.167969 2.351562 C 2.398438 1.90625 2.828125 1.597656 3.328125 1.519531 C 3.824219 1.441406 4.328125 1.605469 4.6875 1.960938 L 6.25 3.523438 C 6.710938 3.980469 6.84375 4.675781 6.582031 5.269531 C 6.445312 5.597656 6.246094 5.894531 6 6.148438 C 4.210938 7.9375 10.0625 13.789062 11.851562 12 C 12.105469 11.753906 12.402344 11.554688 12.730469 11.414062 C 13.324219 11.152344 14.019531 11.285156 14.476562 11.746094 Z M 16.039062 13.3125 "/>
</g>
</svg>
