<?xml version="1.0" encoding="UTF-8"?>
<svg xmlns="http://www.w3.org/2000/svg" xmlns:xlink="http://www.w3.org/1999/xlink" width="18px" height="18px" viewBox="0 0 18 18" version="1.1">
<g id="surface1">
<path style=" stroke:none;fill-rule:nonzero;fill:rgb(0%,0%,0%);fill-opacity:1;" d="M 4.316406 15.210938 L 3 6 L 15 6 L 13.683594 15.210938 C 13.578125 15.953125 12.945312 16.5 12.199219 16.5 L 5.800781 16.5 C 5.054688 16.5 4.421875 15.953125 4.316406 15.210938 Z M 15.75 3 L 12 3 L 12 2.25 C 12 1.835938 11.664062 1.5 11.25 1.5 L 6.75 1.5 C 6.335938 1.5 6 1.835938 6 2.25 L 6 3 L 2.25 3 C 1.835938 3 1.5 3.335938 1.5 3.75 C 1.5 4.164062 1.835938 4.5 2.25 4.5 L 15.75 4.5 C 16.164062 4.5 16.5 4.164062 16.5 3.75 C 16.5 3.335938 16.164062 3 15.75 3 Z M 15.75 3 "/>
</g>
</svg>
